<svg width="30" height="48" viewBox="0 0 30 48" fill="none" xmlns="http://www.w3.org/2000/svg">
<g clip-path="url(#clip0_245_8089)">
<path d="M15.3806 14.8276C14.1988 14.2766 14.4321 11.2752 15.9016 8.12388C17.3711 4.97255 19.5203 2.86461 20.7021 3.41567C21.8838 3.96673 21.6505 6.96811 20.1811 10.1194C18.7116 13.2708 16.5623 15.3787 15.3806 14.8276Z" fill="#5DB85A"/>
<path d="M14.4999 14.237C13.0874 14.237 11.9422 11.0659 11.9422 7.15413C11.9422 3.24238 13.0874 0.0712891 14.4999 0.0712891C15.9125 0.0712891 17.0576 3.24238 17.0576 7.15413C17.0576 11.0659 15.9125 14.237 14.4999 14.237Z" fill="#6DC96A"/>
<path d="M13.6192 14.8276C12.4375 15.3787 10.2882 13.2707 8.81876 10.1194C7.34927 6.96806 7.11601 3.96668 8.29776 3.41563C9.4795 2.86457 11.6288 4.9725 13.0982 8.12383C14.5677 11.2752 14.801 14.2765 13.6192 14.8276Z" fill="#5DB85A"/>
<path d="M23.9438 16.0077C24.4684 28.4682 21.3205 39.2892 14.5 48.4707C7.67949 39.2892 4.53156 28.4682 5.05621 16.0077H23.9438Z" fill="#FF7043"/>
</g>
<defs>
<clipPath id="clip0_245_8089">
<rect width="29.9999" height="47.9999" fill="white" transform="matrix(-1 0 0 1 30 0)"/>
</clipPath>
</defs>
</svg>
