<svg width="32" height="32" viewBox="0 0 32 32" fill="none" xmlns="http://www.w3.org/2000/svg">
<g clip-path="url(#clip0_291_8805)">
<path d="M27.5556 0H4.44444C1.99111 0 0 1.99111 0 4.44444V27.5556C0 30.0089 1.99111 32 4.44444 32H27.5556C30.0089 32 32 30.0089 32 27.5556V4.44444C32 1.99111 30.0089 0 27.5556 0Z" fill="#DDF3E9"/>
<path d="M28.4367 32C28.0634 32 27.7167 31.7686 27.5922 31.4086L26.9166 29.4029C26.1521 27.1486 24.7031 25.2286 22.7207 23.84C20.7472 22.4514 18.4181 21.7143 15.9912 21.7143C11.013 21.7143 6.62148 24.8 5.07468 29.4029L4.39906 31.4086C4.24794 31.8629 3.75012 32.1029 3.27896 31.9571C2.8167 31.8114 2.5589 31.3229 2.71002 30.8771L3.38564 28.8714C5.18135 23.5657 10.2485 20 16.0001 20C18.8092 20 21.5028 20.8486 23.7785 22.4514C26.0543 24.0457 27.7256 26.2657 28.6145 28.8629L29.2901 30.8771C29.4413 31.3229 29.1835 31.8114 28.7212 31.9571C28.6323 31.9829 28.5345 32 28.4456 32H28.4367Z" fill="#0AA16E"/>
<path d="M16.0001 18.1622C12.5689 18.1622 9.77783 15.45 9.77783 12.1081C9.77783 8.76629 12.5689 6.05408 16.0001 6.05408C19.4312 6.05408 22.2223 8.76629 22.2223 12.1081C22.2223 15.45 19.4312 18.1622 16.0001 18.1622ZM16.0001 7.66849C13.5467 7.66849 11.5556 9.66229 11.5556 12.1081C11.5556 14.554 13.5467 16.5478 16.0001 16.5478C18.4534 16.5478 20.4445 14.554 20.4445 12.1081C20.4445 9.66229 18.4534 7.66849 16.0001 7.66849Z" fill="#0AA16E"/>
</g>
<defs>
<clipPath id="clip0_291_8805">
<rect width="32" height="32" rx="16" fill="white"/>
</clipPath>
</defs>
</svg>
