<!-- Generated by IcoMoon.io -->
<svg version="1.1" xmlns="http://www.w3.org/2000/svg" width="1024" height="1024" viewBox="0 0 1024 1024">
<g id="icomoon-ignore">
</g>
<path fill="#ddf3e9" d="M881.779 0h-739.557c-78.507 0-142.222 63.716-142.222 142.222v739.557c0 78.506 63.716 142.221 142.222 142.221h739.557c78.506 0 142.221-63.715 142.221-142.221v-739.557c0-78.507-63.715-142.222-142.221-142.222z"></path>
<path fill="#0aa16e" d="M909.974 1024c-11.946 0-23.040-7.405-27.024-18.925l-21.619-64.182c-24.464-72.138-70.832-133.578-134.269-178.013-63.152-44.435-137.683-68.022-215.344-68.022-159.302 0-299.831 98.742-349.329 246.035l-21.62 64.182c-4.836 14.538-20.766 22.218-35.843 17.552-14.792-4.662-23.042-20.294-18.206-34.56l21.62-64.182c57.463-169.782 219.612-283.885 403.663-283.885 89.891 0 176.086 27.155 248.909 78.445 72.826 51.018 126.307 122.058 154.752 205.168l21.619 64.454c4.838 14.266-3.411 29.898-18.205 34.56-2.845 0.826-5.974 1.373-8.819 1.373h-0.285z"></path>
<path fill="#0aa16e" d="M512.003 581.19c-109.798 0-199.113-86.79-199.113-193.731 0-106.938 89.314-193.729 199.113-193.729 109.795 0 199.11 86.791 199.11 193.729 0 106.941-89.315 193.731-199.11 193.731zM512.003 245.392c-78.509 0-142.224 63.802-142.224 142.068 0 78.269 63.715 142.070 142.224 142.070 78.506 0 142.221-63.802 142.221-142.070 0-78.266-63.715-142.068-142.221-142.068z"></path>
</svg>
