<svg width="32" height="32" viewBox="0 0 32 32" fill="none" xmlns="http://www.w3.org/2000/svg">
<g clip-path="url(#clip0_291_8852)">
<path d="M27.5556 0H4.44444C1.99111 0 0 1.99111 0 4.44444V27.5556C0 30.0089 1.99111 32 4.44444 32H27.5556C30.0089 32 32 30.0089 32 27.5556V4.44444C32 1.99111 30.0089 0 27.5556 0Z" fill="#DDF3E9"/>
<path fill-rule="evenodd" clip-rule="evenodd" d="M14.9625 8.24901C14.8722 8.24901 14.7856 8.28486 14.7218 8.34868C14.658 8.4125 14.6222 8.49906 14.6222 8.58931V18.9451L18.0014 20.8932C18.3033 21.0672 18.4893 21.3891 18.4893 21.7375V32.751H27.0588V8.58931C27.0588 8.49906 27.0229 8.4125 26.9591 8.34868C26.8953 8.28486 26.8087 8.24901 26.7185 8.24901H14.9625ZM16.5402 32.751V22.3005L10.9407 19.0725L5.34111 22.3005V32.751H9.96616V25.6819C9.96616 25.1437 10.4025 24.7074 10.9407 24.7074C11.4789 24.7074 11.9152 25.1437 11.9152 25.6819V32.751H16.5402ZM12.6731 17.8216L11.4274 17.1034C11.1261 16.9298 10.7552 16.9298 10.454 17.1034L3.8799 20.8932C3.57807 21.0672 3.39209 21.3891 3.39209 21.7375V33.7255C3.39209 34.2637 3.82839 34.7 4.3666 34.7H28.0333C28.5715 34.7 29.0078 34.2637 29.0078 33.7255V8.58931C29.0078 7.98215 28.7666 7.39985 28.3372 6.97052C27.9079 6.54118 27.3256 6.29999 26.7185 6.29999H14.9625C14.3553 6.29999 13.773 6.54118 13.3437 6.97052C12.9143 7.39985 12.6731 7.98215 12.6731 8.58931V17.8216Z" fill="#0AA16E"/>
</g>
<defs>
<clipPath id="clip0_291_8852">
<rect width="32" height="32" rx="16" fill="white"/>
</clipPath>
</defs>
</svg>
