<!-- Generated by IcoMoon.io -->
<svg version="1.1" xmlns="http://www.w3.org/2000/svg" width="1024" height="1024" viewBox="0 0 1024 1024">
<g id="icomoon-ignore">
</g>
<path fill="#ddf3e9" d="M881.779 0h-739.557c-78.507 0-142.222 63.716-142.222 142.222v739.557c0 78.506 63.716 142.221 142.222 142.221h739.557c78.506 0 142.221-63.715 142.221-142.221v-739.557c0-78.507-63.715-142.222-142.221-142.222z"></path>
<path fill="#0aa16e" d="M478.8 263.968h376.192c2.886 0 5.658 1.147 7.699 3.189s3.19 4.812 3.19 7.7v773.174h-274.224v-352.432c0-11.149-5.952-21.45-15.613-27.018l-108.134-62.339v-331.385c0-2.888 1.146-5.658 3.187-7.7s4.813-3.189 7.702-3.189zM529.286 1048.032h-148v-226.211c0-17.222-13.962-31.184-31.184-31.184s-31.185 13.962-31.185 31.184v226.211h-148.002v-334.416l179.187-103.296 179.184 103.296v334.416zM405.539 570.291l-39.862-22.982c-9.642-5.555-21.51-5.555-31.149 0l-210.371 121.274c-9.659 5.568-15.61 15.869-15.61 27.018v383.616c0 17.222 13.962 31.184 31.184 31.184h757.334c17.222 0 31.184-13.962 31.184-31.184v-804.358c0-19.429-7.718-38.063-21.459-51.801-13.738-13.739-32.371-21.457-51.798-21.457h-376.192c-19.43 0-38.064 7.718-51.802 21.457-13.741 13.739-21.459 32.372-21.459 51.801v295.433z"></path>
</svg>
